<svg width="28" height="24" viewBox="0 0 28 24" fill="none" xmlns="http://www.w3.org/2000/svg">
<path d="M10.1689 19.0689C9.61456 22.1432 8.30421 23 8.00182 23C7.69943 23 5.17952 22.5464 6.59067 16.4986C5.5659 16.4986 3.37526 16.4986 2.8108 16.4986C2.10522 16.4986 0.442078 14.6339 1.95403 10.2492C3.46597 5.86459 4.57479 5.31021 5.98594 5.25981" stroke="#E53A4F" stroke-width="1.81434" stroke-linecap="round" stroke-linejoin="round"/>
<path d="M16.8213 15.6412C17.2648 13.1818 18.7364 11.5757 19.7444 11.1558C19.6436 8.58544 19.7948 3.44482 19.5932 2.43686C19.3412 1.1769 14.3518 1.78168 12.9406 1.83208C11.5294 1.88247 10.1183 2.43686 8.60635 6.8215C7.0944 11.2062 8.75754 13.0709 9.46312 13.0709H13.243C11.8318 19.1187 14.3518 19.5723 14.6541 19.5723C14.9565 19.5723 16.2669 18.7155 16.8213 15.6412Z" stroke="#E53A4F" stroke-width="1.81434" stroke-linecap="round" stroke-linejoin="round"/>
<rect x="26.7998" y="12.8193" width="7.05576" height="11.894" rx="3.52788" transform="rotate(180 26.7998 12.8193)" fill="#E53A4F" fill-opacity="0.24" stroke="#E53A4F" stroke-width="1.81434"/>
</svg>
