<svg width="28" height="24" viewBox="0 0 28 24" fill="none" xmlns="http://www.w3.org/2000/svg">
<path d="M18.1152 4.93107C18.6696 1.85677 19.98 1 20.2824 1C20.5848 1 23.1047 1.45358 21.6935 7.50138C22.7183 7.50138 24.9089 7.50138 25.4734 7.50138C26.179 7.50138 27.8421 9.36611 26.3302 13.7508C24.8182 18.1354 23.7094 18.6898 22.2982 18.7402" stroke="white" stroke-width="1.81434" stroke-linecap="round" stroke-linejoin="round"/>
<path d="M11.4629 8.35782C11.0194 10.8173 9.54776 12.4233 8.53979 12.8433C8.64059 15.4136 8.48937 20.5542 8.69097 21.5622C8.94296 22.8221 13.9324 22.2173 15.3436 22.1669C16.7547 22.1166 18.1659 21.5622 19.6778 17.1775C21.1898 12.7929 19.5266 10.9281 18.8211 10.9281H15.0412C16.4523 4.88034 13.9324 4.42676 13.63 4.42676C13.3276 4.42676 12.0173 5.28353 11.4629 8.35782Z" stroke="white" stroke-width="1.81434" stroke-linecap="round" stroke-linejoin="round"/>
<rect x="1.48438" y="11.1797" width="7.05576" height="11.894" rx="3.52788" fill="white" fill-opacity="0.24" stroke="white" stroke-width="1.81434"/>
</svg>
