<svg
                        width="28"
                        height="28"
                        viewBox="0 0 28 28"
                        fill="none"
                        xmlns="http://www.w3.org/2000/svg"
                        
                    >
                        <path
                            d="M21.8894 9.60307C21.8129 9.43879 21.6481 9.33335 21.4666 9.33335H15.9366L21.3943 0.716352C21.4853 0.572633 21.4908 0.390633 21.4088 0.241773C21.3266 0.0924219 21.1698 0 20.9999 0H13.5333C13.3564 0 13.1949 0.0998594 13.1156 0.25807L6.11561 14.2581C6.04326 14.4023 6.05119 14.574 6.13612 14.7116C6.22154 14.8493 6.37133 14.9333 6.53326 14.9333H11.332L6.10298 27.3522C6.01384 27.5646 6.09319 27.8109 6.28963 27.9314C6.36521 27.9776 6.44921 27.9999 6.53277 27.9999C6.6667 27.9999 6.79877 27.9425 6.89026 27.8343L21.8236 10.1009C21.9407 9.96193 21.9659 9.76779 21.8894 9.60307Z"
                            fill="#E4B200"
                        />
                    </svg>