<svg width="38" height="34" viewBox="0 0 38 34" fill="none" xmlns="http://www.w3.org/2000/svg">
<path d="M26.6465 15.5713C27.0887 13.1189 28.5562 11.5174 29.5613 11.0986C29.4608 8.53558 29.6116 3.40955 29.4105 2.40444C29.1593 1.14806 24.184 1.75113 22.7768 1.80138C21.3697 1.85164 19.9625 2.40444 18.4549 6.77665C16.9472 11.1488 18.6056 13.0083 19.3092 13.0083L23.0783 13.0083C21.6712 19.0389 24.184 19.4912 24.4855 19.4912C24.787 19.4912 26.0937 18.6369 26.6465 15.5713Z" stroke="#E53A4F" stroke-width="1.80919" stroke-linecap="round" stroke-linejoin="round"/>
<rect x="36.5964" y="12.7568" width="7.03573" height="11.8602" rx="3.51786" transform="rotate(180 36.5964 12.7568)" fill="#E53A4F" fill-opacity="0.24" stroke="#E53A4F" stroke-width="1.80919"/>
<path d="M11.3548 18.4297C10.9125 20.8821 9.44505 22.4836 8.43994 22.9024C8.54045 25.4654 8.38966 30.5914 8.59068 31.5965C8.84196 32.8529 13.8173 32.2499 15.2244 32.1996C16.6316 32.1493 18.0387 31.5965 19.5464 27.2243C21.054 22.8521 19.3956 20.9927 18.692 20.9927H14.9229C16.33 14.9621 13.8173 14.5098 13.5157 14.5098C13.2142 14.5098 11.9076 15.3641 11.3548 18.4297Z" stroke="#10A9A0" stroke-width="1.80919" stroke-linecap="round" stroke-linejoin="round"/>
<rect x="1.40479" y="21.2441" width="7.03573" height="11.8602" rx="3.51786" fill="#10A9A0" fill-opacity="0.24" stroke="#10A9A0" stroke-width="1.80919"/>
</svg>
